<?xml version="1.0" standalone="no"?>
<!DOCTYPE svg PUBLIC "-//W3C//DTD SVG 20010904//EN"
 "http://www.w3.org/TR/2001/REC-SVG-20010904/DTD/svg10.dtd">
<svg version="1.0" xmlns="http://www.w3.org/2000/svg"
 width="900.000000pt" height="900.000000pt" viewBox="0 0 900.000000 900.000000"
 preserveAspectRatio="xMidYMid meet">
<metadata>
Created by potrace 1.10, written by Peter Selinger 2001-2011
</metadata>
<g transform="translate(0.000000,900.000000) scale(0.100000,-0.100000)"
fill="#ffffff" stroke="none">
<path d="M26 8484 c-3 -9 -6 -276 -6 -595 l0 -579 1338 -1333 c2787 -2778
3143 -3132 3153 -3136 6 -1 38 26 72 60 88 91 1057 1075 1697 1724 162 165
455 462 650 661 1112 1130 1570 1595 1784 1811 132 133 243 248 247 255 10 15
12 1108 3 1132 -6 14 -95 16 -907 16 l-902 0 -1315 -1315 c-723 -723 -1320
-1315 -1326 -1315 -11 0 -85 72 -624 605 -792 783 -1733 1711 -1888 1863
l-167 162 -901 0 c-813 0 -902 -2 -908 -16z"/>
<path d="M27 6764 c-4 -4 -7 -1098 -7 -2431 0 -2077 2 -2424 14 -2421 8 2 467
452 1020 1002 l1006 998 0 468 0 468 -172 163 c-94 90 -176 169 -182 174 -6 6
-96 91 -201 190 -104 99 -195 184 -201 190 -6 5 -94 89 -195 185 -101 96 -231
220 -289 275 -58 55 -143 136 -189 180 -46 44 -89 85 -95 90 -13 12 -388 367
-396 375 -59 59 -108 99 -113 94z"/>
<path d="M8805 6623 c-77 -74 -196 -190 -265 -257 -69 -67 -251 -243 -405
-391 -154 -148 -338 -326 -409 -395 -70 -69 -140 -136 -155 -150 -59 -56 -316
-304 -458 -443 l-153 -150 0 -1154 c0 -1137 0 -1154 19 -1151 19 3 151 132
1389 1360 l602 598 -2 1132 c-2 743 -6 1132 -13 1134 -5 2 -73 -58 -150 -133z"/>
<path d="M2420 4025 l0 -445 647 -642 c356 -354 822 -816 1036 -1028 213 -212
397 -386 408 -388 14 -3 40 17 86 65 37 37 191 194 343 348 634 644 1384 1406
1507 1534 l133 136 0 423 c0 372 -2 422 -15 422 -9 0 -289 -271 -623 -603
-1124 -1117 -1403 -1392 -1418 -1400 -18 -10 19 -45 -788 748 -302 297 -587
578 -635 624 -47 46 -215 212 -372 368 -157 155 -291 283 -297 283 -9 0 -12
-110 -12 -445z"/>
<path d="M8575 3643 c-203 -202 -650 -645 -992 -985 l-623 -618 0 -780 0 -780
23 -5 c12 -3 463 -4 1002 -3 l980 3 3 1768 c2 1410 0 1767 -10 1767 -7 0 -179
-165 -383 -367z"/>
<path d="M1955 3422 c-49 -48 -339 -332 -644 -632 -305 -300 -699 -687 -875
-860 -177 -173 -347 -340 -378 -372 l-58 -57 0 -510 0 -511 23 -5 c12 -3 474
-4 1027 -3 l1005 3 3 1518 c1 834 -1 1517 -5 1517 -5 0 -48 -40 -98 -88z"/>
</g>
</svg>
